<?xml version="1.0" standalone="no"?>
<!DOCTYPE svg PUBLIC "-//W3C//DTD SVG 20010904//EN"
 "http://www.w3.org/TR/2001/REC-SVG-20010904/DTD/svg10.dtd">
<svg version="1.0" xmlns="http://www.w3.org/2000/svg"
 width="1735.000000pt" height="2140.000000pt" viewBox="0 0 1735.000000 2140.000000"
 preserveAspectRatio="xMidYMid meet">

<g transform="translate(0.000000,2140.000000) scale(0.100000,-0.100000)"
fill="currentColor" stroke="none">
<path d="M14552 21350 c-126 -99 -170 -225 -123 -350 22 -58 76 -135 194 -279
141 -170 187 -278 187 -438 0 -262 -149 -634 -377 -940 -359 -483 -1093 -1048
-1865 -1434 -217 -109 -349 -168 -738 -329 -913 -379 -2885 -1133 -3049 -1166
-110 -22 -323 -15 -426 14 -223 63 -1426 430 -1565 477 -1081 371 -2161 894
-3460 1673 -381 229 -447 272 -548 367 -301 280 -419 716 -306 1135 52 195
131 340 327 603 134 180 177 256 196 345 24 116 -38 240 -149 298 -41 21 -192
30 -510 28 -217 -1 -313 -14 -517 -70 -372 -102 -730 -316 -1052 -629 -157
-152 -260 -275 -371 -442 -158 -238 -263 -480 -348 -803 l-46 -175 -4 -391 -3
-391 36 -144 c52 -209 89 -317 160 -464 97 -203 224 -383 389 -555 150 -156
1498 -1453 1756 -1691 436 -401 680 -609 889 -759 102 -73 186 -141 203 -164
82 -113 54 -234 -109 -486 -174 -269 -256 -440 -368 -770 -69 -202 -106 -293
-162 -403 -39 -76 -47 -101 -51 -161 -5 -90 21 -167 79 -226 91 -94 192 -106
434 -50 107 24 156 31 206 27 90 -6 163 -45 206 -110 79 -118 73 -219 -32
-597 -186 -670 -432 -1522 -772 -2670 -85 -289 -170 -579 -188 -646 -126 -458
-156 -891 -90 -1281 25 -147 91 -398 153 -583 221 -657 558 -1249 1087 -1910
441 -551 900 -1015 2425 -2455 700 -660 737 -695 1190 -1115 234 -217 541
-507 682 -643 323 -311 385 -369 531 -495 l117 -102 75 0 c40 0 86 5 100 10
15 6 58 38 96 73 75 66 112 120 224 327 191 351 348 549 614 777 339 290 627
485 1056 713 483 257 779 501 1060 875 209 278 283 426 630 1255 241 578 410
879 681 1215 445 552 714 1007 970 1638 222 549 357 1019 430 1497 32 214 44
621 24 817 -50 497 -201 946 -470 1396 -182 306 -380 553 -736 917 -251 257
-339 381 -397 561 -49 149 -59 368 -21 459 32 75 102 123 199 135 28 4 129 0
225 -9 474 -42 774 -52 845 -27 136 46 173 153 121 346 -49 183 -62 207 -478
905 -130 217 -247 418 -261 446 -52 102 -47 162 17 232 62 67 143 117 586 364
881 490 1209 704 1649 1075 153 129 465 441 577 576 354 430 587 896 695 1392
12 55 30 119 40 143 18 40 19 78 19 490 0 471 -5 544 -50 724 -40 162 -115
365 -191 518 -91 183 -139 260 -270 435 -357 477 -788 799 -1305 973 -140 47
-226 70 -427 111 -132 28 -167 31 -322 31 l-173 0 -50 -40z m-12294 -402 c24
-24 11 -91 -59 -285 -166 -466 -212 -706 -188 -988 46 -545 308 -958 824
-1298 186 -122 450 -247 2215 -1051 201 -91 389 -182 417 -202 88 -60 116
-132 74 -186 -11 -14 -80 -62 -153 -108 -178 -112 -509 -336 -633 -428 -197
-147 -374 -352 -470 -542 -45 -90 -101 -251 -126 -368 -25 -118 -36 -447 -21
-647 6 -71 8 -132 6 -134 -6 -6 -357 207 -583 353 -1250 812 -2115 1642 -2631
2526 -215 369 -454 926 -515 1202 -25 111 -30 343 -11 460 31 190 112 388 261
637 347 580 803 920 1410 1050 105 23 166 26 183 9z m13057 -93 c264 -50 505
-174 735 -377 266 -235 457 -551 537 -888 15 -66 43 -282 37 -289 -2 -3 -1114
633 -1274 729 -58 34 -87 78 -95 143 -3 29 -21 179 -40 334 -35 295 -35 346 3
356 9 3 18 5 19 6 1 0 36 -6 78 -14z m175 -1062 c46 -27 123 -97 270 -244 270
-270 308 -290 583 -309 169 -12 261 -30 345 -70 128 -60 211 -156 255 -295 30
-97 30 -303 -2 -455 -26 -123 -121 -450 -266 -914 -124 -397 -117 -378 -152
-406 -41 -32 -72 -24 -314 91 -357 169 -494 219 -768 285 -157 38 -208 60
-259 108 -82 77 -93 135 -90 506 2 267 -1 317 -26 530 -30 261 -39 310 -62
345 -15 23 -65 46 -126 59 -54 12 -47 31 122 364 167 329 201 380 280 422 22
12 56 19 90 20 46 0 66 -6 120 -37z m-723 -1112 c53 -39 127 -138 153 -209 32
-82 31 -182 -3 -297 -39 -136 -50 -225 -44 -360 14 -318 96 -448 313 -502 53
-13 122 -17 299 -19 246 -2 271 -6 361 -59 56 -33 137 -124 167 -188 66 -140
60 -305 -15 -451 -40 -77 -267 -306 -448 -452 -158 -127 -538 -417 -567 -432
-12 -7 -35 -12 -52 -12 -31 0 -413 179 -821 386 -352 178 -433 260 -608 617
-58 119 -110 217 -114 217 -14 0 -88 -138 -114 -216 -22 -62 -27 -97 -27 -164
0 -132 45 -223 148 -301 31 -24 225 -122 467 -236 227 -108 432 -209 455 -225
54 -36 77 -79 69 -124 -7 -34 -139 -229 -236 -349 -128 -156 -318 -321 -506
-440 -141 -89 -493 -255 -540 -255 -10 0 -12 68 -11 348 2 376 -2 422 -59 610
-109 361 -363 681 -772 971 -55 39 -215 144 -354 232 -370 236 -382 249 -288
297 116 58 630 289 752 338 266 105 503 160 655 151 223 -13 350 -170 354
-437 1 -113 7 -114 77 -24 84 106 115 172 120 251 6 83 -12 117 -143 277 -58
70 -108 139 -111 152 -4 17 0 31 12 45 10 11 140 112 289 223 649 486 935 663
1071 665 19 1 46 -10 71 -28z m-3842 -1852 c244 -30 512 -161 739 -362 36 -32
66 -61 66 -65 0 -4 -96 -58 -214 -120 -118 -62 -216 -118 -219 -126 -3 -7 -1
-19 3 -26 9 -14 39 -13 295 15 77 8 194 15 260 15 105 0 126 -3 171 -24 59
-27 106 -80 124 -139 9 -26 14 -100 15 -193 1 -83 5 -156 9 -162 17 -28 60
-12 106 39 118 134 124 139 172 139 55 0 101 -28 218 -133 111 -100 214 -219
247 -286 36 -72 37 -156 4 -226 -32 -67 -153 -184 -328 -317 -77 -60 -152
-125 -167 -147 -28 -40 -70 -140 -62 -148 2 -2 41 1 86 8 119 17 354 7 454
-20 165 -44 355 -155 497 -288 179 -169 298 -339 680 -973 160 -265 184 -310
184 -346 0 -48 -23 -79 -73 -101 -42 -18 -63 -11 -132 42 -66 52 -116 77 -195
101 -86 26 -251 24 -375 -5 -52 -13 -124 -30 -160 -38 -93 -22 -250 -21 -325
1 -230 68 -357 235 -400 522 -23 153 -5 201 110 295 41 34 75 63 75 65 0 6
-344 116 -423 134 -108 25 -139 25 -160 3 -8 -10 -33 -59 -54 -108 -106 -246
-316 -470 -608 -647 -112 -69 -306 -172 -880 -468 -247 -128 -477 -247 -510
-266 -84 -46 -215 -101 -288 -120 -161 -41 -356 -37 -552 12 -104 26 -142 44
-152 71 -16 42 53 243 136 391 59 108 170 254 295 387 54 58 96 108 93 112
-11 10 -226 -84 -379 -166 -196 -105 -239 -119 -281 -87 -23 18 -156 315 -207
463 -89 256 -93 419 -17 569 41 81 196 268 575 692 191 214 218 260 146 249
-27 -5 -122 -70 -370 -256 -184 -138 -339 -252 -345 -253 -25 -6 -101 278
-119 445 -42 375 115 711 430 918 482 318 614 408 795 545 320 240 417 296
601 349 149 42 264 52 409 34z m-5727 -3432 c6 -5 12 -29 12 -52 0 -67 22
-113 136 -292 180 -280 217 -361 368 -796 115 -329 142 -401 178 -470 53 -99
152 -173 265 -197 26 -6 77 -20 113 -32 87 -29 182 -28 279 2 71 22 83 23 310
17 130 -3 254 -11 276 -17 93 -27 106 -78 51 -200 -18 -41 -275 -588 -570
-1215 -345 -732 -546 -1148 -562 -1162 -22 -20 -36 -23 -103 -23 -103 0 -114
9 -140 120 -36 156 -431 1641 -445 1675 -15 36 -42 55 -66 47 -8 -2 -36 -22
-62 -44 -55 -45 -95 -68 -121 -68 -47 0 -146 148 -294 443 -159 318 -229 547
-269 872 -52 436 72 820 371 1143 39 42 84 101 100 130 16 29 50 73 76 97 48
45 63 48 97 22z m7130 -227 c30 -28 54 -78 117 -239 155 -398 250 -796 290
-1210 20 -204 19 -575 -1 -772 -20 -199 -20 -238 1 -279 l17 -34 142 280 c77
154 155 298 171 321 73 101 163 120 281 57 130 -69 184 -122 374 -374 674
-893 889 -1793 658 -2755 -138 -578 -511 -1257 -1095 -1992 -273 -345 -901
-1099 -946 -1138 -22 -19 -60 -41 -85 -49 -84 -29 -304 -15 -344 21 -38 34
-25 61 224 439 642 981 740 1141 874 1419 124 260 191 436 350 928 51 158 64
211 55 220 -23 23 -71 -51 -264 -408 -107 -198 -391 -711 -632 -1140 -241
-429 -473 -843 -515 -920 -43 -77 -87 -146 -99 -154 -18 -12 -27 -11 -66 4
-48 18 -75 47 -75 79 0 18 220 501 526 1152 62 132 116 258 120 278 8 46 -3
56 -61 56 -167 1 -351 113 -424 258 -47 94 -61 160 -61 297 0 142 -16 208 -62
261 -18 20 -102 89 -187 154 -280 212 -344 283 -344 385 0 107 71 211 327 475
94 97 189 200 211 228 22 28 43 51 47 52 21 1 106 -181 223 -475 184 -460 171
-435 274 -534 99 -97 141 -167 162 -270 18 -95 6 -203 -51 -431 -51 -207 -76
-379 -56 -392 12 -8 131 151 210 282 219 361 347 816 315 1121 -20 196 -87
367 -204 519 -141 184 -192 271 -219 377 -22 83 -20 210 3 309 25 100 36 184
26 184 -5 0 -57 -16 -116 -35 -215 -69 -284 -38 -319 143 -7 35 -16 60 -20 55
-4 -4 -67 -188 -140 -408 -73 -220 -137 -406 -142 -412 -30 -37 -125 3 -151
64 -18 42 -44 272 -56 484 -7 125 -10 141 -36 185 l-29 49 -8 -30 c-4 -16 -28
-203 -53 -415 -64 -535 -63 -529 -96 -562 -37 -37 -114 -40 -147 -5 -28 30
-26 24 -220 567 -93 261 -218 606 -277 765 -121 325 -133 379 -94 422 54 58
270 138 459 169 114 19 368 22 490 5 131 -18 298 -58 494 -117 99 -30 199 -54
222 -54 l43 0 -19 56 c-107 310 -340 502 -645 530 -108 10 -190 -8 -600 -131
-422 -126 -497 -146 -635 -169 -151 -25 -177 -11 -261 141 -24 43 -67 118 -96
166 -61 102 -129 233 -149 291 -24 68 -35 160 -23 195 15 43 44 48 153 26 134
-26 330 -31 445 -11 224 39 403 126 605 295 63 52 832 868 948 1006 15 17 58
57 96 88 98 80 132 92 170 57z m-7988 -1665 c131 -862 170 -1060 266 -1335 99
-285 209 -496 454 -870 358 -548 413 -653 1050 -2010 253 -538 595 -1224 715
-1435 194 -340 378 -536 825 -879 352 -271 512 -369 706 -434 265 -89 538 -92
850 -11 85 22 132 29 165 26 l45 -6 71 78 c40 43 127 120 195 171 68 51 163
127 211 168 50 42 92 71 97 66 8 -9 113 -259 651 -1558 249 -600 309 -761 309
-831 0 -14 -9 -43 -20 -65 -29 -57 -148 -131 -645 -400 -236 -128 -463 -250
-502 -272 l-73 -39 0 36 c0 20 22 257 50 528 82 812 100 1030 100 1205 0 248
-39 467 -107 610 -37 77 -141 180 -222 220 -35 18 -66 31 -67 29 -2 -1 19 -68
46 -147 86 -252 137 -485 161 -743 17 -183 7 -587 -20 -797 -48 -375 -113
-808 -128 -855 -24 -75 -76 -173 -124 -236 -77 -98 -591 -617 -634 -640 -31
-17 -50 -20 -77 -15 -49 9 -1714 1197 -1968 1404 -138 113 -375 351 -480 482
-235 295 -428 653 -564 1048 -61 179 -90 283 -226 812 -128 498 -131 510 -141
510 -5 0 -9 -260 -9 -611 l0 -611 -27 6 c-143 35 -425 379 -601 734 -157 317
-224 561 -287 1052 -36 286 -102 910 -115 1095 -13 186 -14 192 -42 201 -39
12 -53 -22 -67 -162 -40 -409 -155 -1228 -176 -1261 -30 -45 -61 -28 -143 72
-219 270 -343 529 -398 830 -26 140 -26 483 0 644 38 241 131 567 272 949 35
96 64 182 64 192 0 26 -52 66 -94 74 -49 9 -86 -10 -112 -59 -21 -37 -509
-1221 -548 -1327 -30 -80 -32 -76 -72 117 -24 113 -27 154 -28 315 -1 301 21
401 244 1125 379 1229 1048 3344 1068 3379 11 20 23 -44 102 -569z m2670
-2236 c160 -19 245 -54 1005 -409 215 -100 405 -193 424 -207 18 -14 42 -45
52 -69 19 -41 19 -72 17 -701 -3 -737 1 -693 -76 -727 -59 -26 -1491 -407
-1554 -413 -81 -8 -146 25 -234 120 -161 173 -251 360 -291 608 -25 156 -23
597 6 929 12 140 26 316 31 391 11 167 31 227 101 304 83 90 212 155 344 174
85 12 82 12 175 0z m3461 -3 c201 -43 350 -196 384 -394 7 -42 16 -156 20
-252 3 -96 13 -265 21 -375 23 -323 28 -567 15 -685 -24 -213 -87 -398 -192
-566 -77 -123 -129 -178 -204 -215 -62 -30 -68 -31 -162 -26 -87 4 -178 26
-783 186 -377 100 -706 188 -731 196 -51 17 -92 55 -109 99 -7 20 -10 136 -9
355 2 307 1 331 -20 411 -93 360 32 645 361 819 40 21 138 62 217 91 141 51
394 161 552 241 112 56 216 96 295 113 89 19 261 20 345 2z m777 -2546 c155
-195 282 -400 297 -482 4 -19 2 -53 -5 -76 -26 -99 -264 -352 -422 -450 -249
-154 -444 -172 -580 -53 -146 129 -146 343 0 711 40 101 318 665 359 726 15
23 16 22 141 -124 69 -81 164 -194 210 -252z m-2105 119 c630 -181 791 -242
962 -364 196 -139 244 -348 134 -573 -33 -67 -60 -103 -154 -200 -163 -170
-719 -702 -766 -733 -57 -39 -192 -62 -364 -62 -151 0 -203 12 -224 52 -8 15
-11 298 -9 984 3 1027 2 997 50 997 11 0 178 -45 371 -101z m-643 71 c11 -6
24 -27 29 -48 7 -24 11 -373 11 -961 1 -782 -1 -926 -13 -938 -19 -19 -230
-73 -287 -73 -29 0 -58 8 -81 23 -36 22 -648 539 -963 813 -134 117 -165 149
-195 204 -35 62 -36 69 -36 165 0 89 3 107 28 160 77 165 254 302 491 382 195
65 934 282 964 282 18 1 42 -4 52 -9z m1903 -1547 c54 -38 289 -282 385 -401
191 -238 324 -471 504 -882 96 -219 350 -855 361 -904 15 -62 15 -62 -187
-316 -159 -200 -160 -200 -171 -173 -7 15 -75 177 -152 358 -78 182 -313 735
-523 1230 -210 495 -395 923 -411 951 -35 62 -37 93 -6 122 60 56 131 62 200
15z"/>
<path d="M6945 8839 c-139 -18 -218 -81 -251 -204 -25 -94 -30 -286 -9 -365
56 -217 250 -414 502 -512 120 -47 167 -33 249 73 65 85 121 196 144 284 82
321 -119 654 -435 720 -77 16 -97 17 -200 4z"/>
<path d="M10090 8840 c-171 -36 -387 -234 -450 -413 -32 -91 -35 -151 -11
-250 57 -240 184 -436 293 -452 88 -13 244 59 364 169 127 115 219 264 250
404 23 105 16 284 -16 367 -32 84 -88 136 -170 159 -76 22 -197 29 -260 16z"/>
</g>
</svg>
